# xmcd
#
# Track frame offsets:
#	150
#	15038
#	24820
#	35775
#	46338
#	56315
#	68570
#	82273
#	97278
#	110910
#	124260
#
# Disc length: 1841 seconds
#
# Revision: 5
# Processed by: cddbd v1.5.2PL0 Copyright (c) Steve Scherf et al.
# Submitted via: audiograbber 1.83.01
#
DISCID=8d072f0b
DTITLE=Otis Redding - The Immortal Otis Redding
DYEAR=1968
DGENRE=Oldies
TTITLE0=I've Got Dreams To Remember
TTITLE1=You've Made A Man Out Of Me
TTITLE2=Nobody's Fault But Mine
TTITLE3=Hard To Handle
TTITLE4=Thousand Miles Away
TTITLE5=The Happy Song ( Dum-Dum-De-De-De-Dum-Dum)
TTITLE6=Think About It
TTITLE7=A Waste Of Time
TTITLE8=Champagne And Wine
TTITLE9=A Fool For You
TTITLE10=Amen
EXTD=
EXTT0=
EXTT1=
EXTT2=
EXTT3=
EXTT4=
EXTT5=
EXTT6=
EXTT7=
EXTT8=
EXTT9=
EXTT10=
PLAYORDER=
